<svg width="17" height="15" viewBox="0 0 17 15" fill="none" xmlns="http://www.w3.org/2000/svg">
    <path d="M7.0576 0.713999L8.1136 1.814L2.96559 6.918L16.2536 6.918L16.2536 8.502L2.96559 8.502L8.11359 13.606L7.05759 14.706L0.0395942 7.71L7.0576 0.713999Z" fill="#9D9D9D"/>
    <path d="M7.0576 0.713999L8.1136 1.814L2.96559 6.918L16.2536 6.918L16.2536 8.502L2.96559 8.502L8.11359 13.606L7.05759 14.706L0.0395942 7.71L7.0576 0.713999Z" fill="#9D9D9D"/>
    <path d="M7.0576 0.713999L8.1136 1.814L2.96559 6.918L16.2536 6.918L16.2536 8.502L2.96559 8.502L8.11359 13.606L7.05759 14.706L0.0395942 7.71L7.0576 0.713999Z" fill="#9D9D9D"/>
    <path d="M7.0576 0.713999L8.1136 1.814L2.96559 6.918L16.2536 6.918L16.2536 8.502L2.96559 8.502L8.11359 13.606L7.05759 14.706L0.0395942 7.71L7.0576 0.713999Z" fill="#9D9D9D"/>
    <path d="M7.0576 0.713999L8.1136 1.814L2.96559 6.918L16.2536 6.918L16.2536 8.502L2.96559 8.502L8.11359 13.606L7.05759 14.706L0.0395942 7.71L7.0576 0.713999Z" fill="#9D9D9D"/>
</svg>
