<svg width="17" height="15" viewBox="0 0 17 15" fill="none"
     xmlns="http://www.w3.org/2000/svg">
    <path
            d="M9.50979 14.7352L8.45379 13.6352L13.6018 8.53122L0.313791 8.53122L0.31379 6.94722L13.6018 6.94722L8.45379 1.84322L9.50979 0.743216L16.5278 7.73922L9.50979 14.7352Z"
            fill="#9D9D9D"/>
    <path
            d="M9.50979 14.7352L8.45379 13.6352L13.6018 8.53122L0.313791 8.53122L0.31379 6.94722L13.6018 6.94722L8.45379 1.84322L9.50979 0.743216L16.5278 7.73922L9.50979 14.7352Z"
            fill="#9D9D9D"/>
    <path
            d="M9.50979 14.7352L8.45379 13.6352L13.6018 8.53122L0.313791 8.53122L0.31379 6.94722L13.6018 6.94722L8.45379 1.84322L9.50979 0.743216L16.5278 7.73922L9.50979 14.7352Z"
            fill="#9D9D9D"/>
    <path
            d="M9.50979 14.7352L8.45379 13.6352L13.6018 8.53122L0.313791 8.53122L0.31379 6.94722L13.6018 6.94722L8.45379 1.84322L9.50979 0.743216L16.5278 7.73922L9.50979 14.7352Z"
            fill="#9D9D9D"/>
    <path
            d="M9.50979 14.7352L8.45379 13.6352L13.6018 8.53122L0.313791 8.53122L0.31379 6.94722L13.6018 6.94722L8.45379 1.84322L9.50979 0.743216L16.5278 7.73922L9.50979 14.7352Z"
            fill="#0038FF"/>
</svg>