<svg width="69" height="69" viewBox="0 0 69 69" fill="none" xmlns="http://www.w3.org/2000/svg">
    <g filter="url(#filter0_d_338_2250)">
        <rect x="4.38379" y="2.5" width="59" height="60" fill="#F0F0F0" fill-opacity="0.8" stroke="#9D9D9D" stroke-dasharray="4 4"/>
        <g clip-path="url(#clip0_338_2250)">
            <g clip-path="url(#clip1_338_2250)">
                <path d="M34.3005 30.9583C35.5201 30.9583 36.7124 30.5967 37.7265 29.9191C38.7406 29.2415 39.531 28.2784 39.9977 27.1516C40.4645 26.0247 40.5866 24.7848 40.3486 23.5886C40.1107 22.3924 39.5234 21.2936 38.6609 20.4312C37.7985 19.5688 36.6997 18.9814 35.5035 18.7435C34.3073 18.5056 33.0674 18.6277 31.9406 19.0944C30.8138 19.5612 29.8507 20.3515 29.1731 21.3657C28.4955 22.3798 28.1338 23.572 28.1338 24.7917C28.1338 26.4272 28.7835 27.9957 29.94 29.1522C31.0964 30.3086 32.665 30.9583 34.3005 30.9583ZM34.3005 21.7083C34.9103 21.7083 35.5064 21.8892 36.0135 22.228C36.5205 22.5668 36.9157 23.0483 37.1491 23.6117C37.3825 24.1751 37.4435 24.7951 37.3245 25.3932C37.2056 25.9913 36.9119 26.5407 36.4807 26.9719C36.0495 27.4031 35.5001 27.6968 34.902 27.8158C34.3039 27.9347 33.6839 27.8737 33.1205 27.6403C32.5571 27.4069 32.0756 27.0117 31.7368 26.5047C31.398 25.9976 31.2171 25.4015 31.2171 24.7917C31.2171 23.9739 31.542 23.1897 32.1202 22.6114C32.6984 22.0332 33.4827 21.7083 34.3005 21.7083Z" fill="#231F20"/>
                <path d="M34.3005 34.042C31.4383 34.042 28.6934 35.179 26.6696 37.2028C24.6458 39.2266 23.5088 41.9715 23.5088 44.8337C23.5088 45.2425 23.6712 45.6347 23.9603 45.9238C24.2495 46.2129 24.6416 46.3753 25.0505 46.3753C25.4593 46.3753 25.8515 46.2129 26.1406 45.9238C26.4297 45.6347 26.5921 45.2425 26.5921 44.8337C26.5921 42.7893 27.4042 40.8286 28.8498 39.383C30.2954 37.9375 32.2561 37.1253 34.3005 37.1253C36.3448 37.1253 38.3055 37.9375 39.7511 39.383C41.1967 40.8286 42.0088 42.7893 42.0088 44.8337C42.0088 45.2425 42.1712 45.6347 42.4603 45.9238C42.7495 46.2129 43.1416 46.3753 43.5505 46.3753C43.9593 46.3753 44.3515 46.2129 44.6406 45.9238C44.9297 45.6347 45.0921 45.2425 45.0921 44.8337C45.0921 41.9715 43.9551 39.2266 41.9313 37.2028C39.9075 35.179 37.1626 34.042 34.3005 34.042Z" fill="#231F20"/>
            </g>
        </g>
    </g>
    <defs>
        <filter id="filter0_d_338_2250" x="0.883789" y="0" width="68" height="69" filterUnits="userSpaceOnUse" color-interpolation-filters="sRGB">
            <feFlood flood-opacity="0" result="BackgroundImageFix"/>
            <feColorMatrix in="SourceAlpha" type="matrix" values="0 0 0 0 0 0 0 0 0 0 0 0 0 0 0 0 0 0 127 0" result="hardAlpha"/>
            <feOffset dx="1" dy="2"/>
            <feGaussianBlur stdDeviation="2"/>
            <feComposite in2="hardAlpha" operator="out"/>
            <feColorMatrix type="matrix" values="0 0 0 0 0 0 0 0 0 0 0 0 0 0 0 0 0 0 0.2 0"/>
            <feBlend mode="normal" in2="BackgroundImageFix" result="effect1_dropShadow_338_2250"/>
            <feBlend mode="normal" in="SourceGraphic" in2="effect1_dropShadow_338_2250" result="shape"/>
        </filter>
        <clipPath id="clip0_338_2250">
            <rect width="42" height="42" fill="white" transform="translate(13.8838 12)"/>
        </clipPath>
        <clipPath id="clip1_338_2250">
            <rect width="37" height="37" fill="white" transform="translate(18.8838 14)"/>
        </clipPath>
    </defs>
</svg>
